<svg xmlns="http://www.w3.org/2000/svg" xmlns:xlink="http://www.w3.org/1999/xlink" viewBox="0 0 1000 927.2" xml:space="preserve">
<style>.st0{fill:#0222A9}.st1{fill:#011DA9}.st2{fill:#069330}.st3{fill:#FE2015}.st4{fill:#FFC001}.st5{fill:#0124A6}.st6{fill:#FF2D1E}</style>
<g transform="matrix(2.4919039,0,0,2.4919039,0,0)">
<path class="st0" d="M223.4,165.3l8.8-10V87.7l-42,16.2-34.8,62 34.8-13.4z"/>
<path class="st1" d="M298,259.6V145.5l42.6-16.4v179.5l-42.6,18-62.6-81.9v108.3l-45.2,19V187.1l45.2-17.2z"/>
<path class="st0" d="M122.3,308.8l-40-77.7v95.5z"/>
<path class="st2" d="M124.9,129.1l20,40.8 10.4-4 34.8-62-42-16.4z"/>
<path class="st2" d="M223.4,165.3l32-36.2 42.6,16.4v114.1l-62.6-89.7z"/>
<path class="st2" d="M190.1,372.1V187.1l-45.2-17.2v93.9L82.1,145.5l-42.6-16.4v179.5l42.6,18v-95.5l62.8,121.9z"/>
<path class="st3" d="M82.3,145.5l42.6-16.4 20,40.8v93.9z"/>
<path class="st3" d="M235.4,289.4l12.8,18 49.8,19.2-62.6-81.9z"/>
<path class="st4" d="M145.1,169.9l45.2-17.2 45.2,17.2-45.2,17.2z"/>
<path class="st4" d="M298,112.7l42.6,16.4L298,145.5l-42.6-16.4z"/>
<path class="st4" d="M82.3,112.7l42.6,16.4-42.6,16.4-42.6-16.4z"/>
<path class="st4" d="M190.1,71.3l-42,16.2 42,16.4 42-16.2z"/>
<path class="st5" d="M250.6,13.2H270c16.6,0,21.8,9.4,21.8,22.2 0,13.2-8.2,21.4-20.8,21.4h-20.4zm16,33.8h1.6c2.6,0,4.4-.8,5.4-2.6 1-1.8,1.2-5.2,1.2-9.4s-.2-7.6-1.2-9.4c-1-1.8-2.8-2.6-5.4-2.6h-1.6z"/>
<path class="st5" d="M317.4,12c14.2,0,21.4,9.4,21.4,23s-7,23-21.4,23c-14.2,0-21.4-9.4-21.4-23S303,12,317.4,12zm0,34.8c2.6,0,4.4-1.2,4.4-12 0-10.4-1.8-12-4.4-12s-4.4,1.4-4.4,12c0,10.8,1.8,12,4.4,12z"/>
<path class="st5" d="M28.6,13.2v25h-.2l-8.8-25H0v43.6h13.2V31.6h.2l8.8,25.2h19.6V13.2z"/>
<path class="st5" d="M102.7,13.2v25h-.2l-8.8-25H74.1v43.6h13.2V31.6h.2l8.8,25.2h19.6V13.2z"/>
<path class="st5" d="M230.2,13.2v25H230l-8.8-25h-19.6v43.6h13.2V31.6h.2l8.8,25.2h19.6V13.2z"/>
<path class="st5" d="M66.2,13.2v43.6H49.8V13.2z"/>
<path class="st5" d="M131.1,56.8V25h-10.4V13.2h37.2V25h-10.4v31.8z"/>
<path class="st5" d="M178.9,24.8v4.6h15v11.2h-15v4.8h16.8v11.4h-32.8V13.2h32.4v11.6z"/>
<path class="st6" d="M368.3,7.4c-.8,0-1.8,0-3,0-7,.4-9.6,3.2-10.6,6.6h.2c1.8-1.6,3.8-2.2,6.6-2.2 5.4,0,10.4,4,10.4,11.4 0,7.2-5.4,12.8-12.8,12.8-9.8,0-14-7.4-14-15.4 0-6.4,2.2-12,6-15.4 3.6-3.4,8.2-5,13.8-5.2 1.4,0,2.4,0,3.2,0zm-9.2,21.6c2.2,0,3.6-2.2,3.6-5.2 0-2.4-1.2-5.2-4.2-5.2-1.8,0-3.2,1.2-3.8,2.6-.2.4-.2,1-.2,2 0,2.8,1.4,5.8,4.6,5.8z"/>
<path class="st6" d="M389.1,35.4v-7.8h-14.6v-6.2l11.6-20.8h11.6v20h3.6v7.2h-3.6v7.8zm0-15v-6c0-2.2.2-4.6.2-7h-.2c-1,2.4-2,4.6-3.2,7l-2.8,5.8v.2z"/>
</g>
</svg>
